<svg width="32" height="25" viewBox="0 0 32 25" fill="none" xmlns="http://www.w3.org/2000/svg">
<path d="M17.4505 23.1027C17.2105 24.3664 15.9844 25.1976 14.712 24.9592C13.4395 24.7209 12.6026 23.5032 12.8426 22.2395L17.4505 23.1027ZM27.3108 9.95714C27.3108 8.01152 25.6402 6.35245 23.6812 6.35245C21.6206 6.35245 20.3285 7.80823 20.0137 9.52644C19.9473 9.8886 19.8366 10.4808 19.6979 11.2201C21.0024 12.7836 22.327 13.5618 23.6812 13.5618C25.6402 13.5618 27.3108 11.9027 27.3108 9.95714ZM32 9.95714C32 14.4747 28.23 18.2188 23.6812 18.2188C21.7457 18.2188 20.0893 17.578 18.682 16.6056C18.6465 16.7931 18.6113 16.9801 18.5761 17.166C18.2818 18.7207 18.0004 20.2048 17.7926 21.3003C17.6887 21.848 17.6032 22.2986 17.5437 22.6122C17.5139 22.7691 17.4906 22.8917 17.4747 22.9751C17.4668 23.0168 17.4608 23.0487 17.4567 23.0701C17.4547 23.0808 17.4531 23.089 17.4521 23.0944C17.4516 23.0971 17.4511 23.0992 17.4509 23.1006C17.4508 23.1013 17.4506 23.1018 17.4506 23.1021C17.4506 23.1023 17.4506 23.1024 17.4506 23.1025C17.4506 23.1026 17.4505 23.1027 15.1465 22.6711C12.8818 22.2469 12.8432 22.2396 12.8426 22.2394C12.8426 22.2393 12.8427 22.2392 12.8427 22.239C12.8428 22.2387 12.8428 22.2382 12.8429 22.2375C12.8432 22.2362 12.8436 22.2341 12.8441 22.2314C12.8451 22.226 12.8467 22.2178 12.8487 22.2071C12.8528 22.1857 12.8588 22.1537 12.8667 22.1121C12.8826 22.0288 12.9058 21.9063 12.9356 21.7496C12.9951 21.4361 13.0806 20.9856 13.1845 20.4381C13.3922 19.343 13.6734 17.8595 13.9676 16.3056C14.1781 15.1939 14.3946 14.0477 14.5956 12.9826C13.6458 15.9958 10.7882 18.2188 7.46538 18.2188C3.38137 18.2188 0 14.8607 0 10.8047V2.32875C0 1.04276 1.04972 0.000252749 2.34461 0.000252749C3.6395 0.000252749 4.68921 1.04276 4.68921 2.32875V10.8047C4.68921 12.2887 5.97115 13.5618 7.46538 13.5618C8.9596 13.5618 10.2415 12.2887 10.2415 10.8047V2.32875C10.2415 1.21254 11.0392 0.253316 12.1428 0.0422329C13.2464 -0.168823 14.3457 0.427603 14.7631 1.46396C15.2591 2.69537 15.8268 4.20064 16.5128 5.74593C17.8494 3.50063 20.2544 1.69545 23.6812 1.69545C28.23 1.69545 32 5.43952 32 9.95714Z" fill="#CFD2D8"/>
</svg>
